<svg width="208" height="208" viewBox="0 0 208 208" fill="none" xmlns="http://www.w3.org/2000/svg">
<rect opacity="0.4" x="42.4697" y="19.7334" width="149.059" height="149.059" rx="74.5293" fill="#58C3FF"/>
<path d="M51.2476 148.662L92.7625 46.1865C94.3756 42.2047 99.5283 41.1589 102.566 44.1967L163.527 105.157C166.565 108.195 165.519 113.348 161.537 114.961L59.0615 156.476C54.1488 158.466 49.2574 153.575 51.2476 148.662Z" fill="white" stroke="#58C3FF" stroke-width="2"/>
<path d="M94.936 43.4029C96.0496 42.2893 98.0144 41.8449 100.953 42.3534C103.86 42.8563 107.484 44.2578 111.597 46.4815C119.812 50.9225 129.773 58.5294 139.506 68.2621C149.239 77.9949 156.845 87.9563 161.286 96.1711C163.51 100.284 164.912 103.908 165.415 106.815C165.923 109.754 165.479 111.718 164.365 112.832C163.251 113.946 161.287 114.39 158.348 113.881C155.441 113.379 151.818 111.977 147.704 109.753C139.489 105.312 129.528 97.7055 119.795 87.9727C110.062 78.24 102.456 68.2786 98.0146 60.0638C95.7909 55.9504 94.3894 52.3267 93.8865 49.4203C93.378 46.4813 93.8224 44.5165 94.936 43.4029Z" fill="#58C3FF" stroke="#58C3FF" stroke-width="2"/>
<mask id="mask0_0_1" style="mask-type:alpha" maskUnits="userSpaceOnUse" x="49" y="41" width="118" height="117">
<path d="M51.2476 148.662L92.7625 46.1865C94.3756 42.2047 99.5283 41.1589 102.566 44.1967L163.527 105.157C166.565 108.195 165.519 113.348 161.537 114.961L59.0615 156.476C54.1488 158.466 49.2574 153.575 51.2476 148.662Z" fill="white" stroke="#58C3FF" stroke-width="2"/>
</mask>
<g mask="url(#mask0_0_1)">
<path d="M78.4164 54.7583C75.3213 57.8534 77.0016 65.1019 82.183 74.1471C86.7673 82.1499 94.0923 91.5591 103.276 100.742C112.459 109.926 121.868 117.251 129.871 121.835C138.916 127.016 146.165 128.697 149.26 125.602" stroke="#58C3FF" stroke-width="2"/>
<path d="M60.4213 72.293C57.3262 75.3881 59.0064 82.6366 64.1879 91.6818C68.7722 99.6845 76.0972 109.094 85.2805 118.277C94.4638 127.46 103.873 134.785 111.876 139.37C120.921 144.551 128.169 146.231 131.265 143.136" stroke="#58C3FF" stroke-width="2"/>
<path d="M43.8119 89.3623C40.7168 92.4574 42.3971 99.7059 47.5785 108.751C52.1628 116.754 59.4878 126.163 68.6711 135.346C77.8545 144.53 87.2636 151.855 95.2664 156.439C104.312 161.62 111.56 163.301 114.655 160.206" stroke="#58C3FF" stroke-width="2"/>
</g>
<path d="M134.948 17.6769C135.334 17.0146 136.291 17.0146 136.677 17.6769L139.793 23.028C139.935 23.2706 140.171 23.4427 140.446 23.5021L146.498 24.8127C147.247 24.9749 147.543 25.8848 147.032 26.4564L142.906 31.0742C142.719 31.2835 142.629 31.5619 142.657 31.8412L143.281 38.0024C143.358 38.7649 142.584 39.3272 141.883 39.0182L136.216 36.521C135.959 36.4078 135.666 36.4078 135.409 36.521L129.742 39.0182C129.041 39.3272 128.267 38.7649 128.344 38.0024L128.968 31.8412C128.996 31.5619 128.906 31.2835 128.719 31.0742L124.593 26.4564C124.082 25.8848 124.378 24.9749 125.127 24.8127L131.179 23.5021C131.454 23.4427 131.69 23.2706 131.832 23.028L134.948 17.6769Z" fill="#58C3FF"/>
<path d="M182.11 41.5519C182.495 40.8896 183.452 40.8896 183.838 41.5519L186.955 46.903C187.096 47.1456 187.333 47.3177 187.607 47.3771L193.659 48.6877C194.408 48.8499 194.704 49.7598 194.193 50.3314L190.067 54.9492C189.88 55.1585 189.79 55.4369 189.818 55.7162L190.442 61.8774C190.519 62.6399 189.745 63.2022 189.044 62.8932L183.377 60.396C183.12 60.2828 182.827 60.2828 182.57 60.396L176.904 62.8932C176.202 63.2022 175.428 62.6399 175.505 61.8774L176.129 55.7162C176.157 55.4369 176.067 55.1585 175.88 54.9492L171.754 50.3314C171.243 49.7598 171.539 48.8499 172.288 48.6877L178.34 47.3771C178.615 47.3177 178.851 47.1456 178.993 46.903L182.11 41.5519Z" fill="#58C3FF"/>
<path d="M155.755 59.4789C156.148 58.8614 157.049 58.8614 157.442 59.4789L159.187 62.2213C159.266 62.3448 159.371 62.4495 159.494 62.528L162.237 64.2734C162.854 64.6663 162.854 65.5677 162.237 65.9606L159.494 67.706C159.371 67.7845 159.266 67.8893 159.187 68.0127L157.442 70.7551C157.049 71.3726 156.148 71.3726 155.755 70.7551L154.01 68.0127C153.931 67.8893 153.826 67.7845 153.703 67.706L150.96 65.9606C150.343 65.5677 150.343 64.6663 150.96 64.2734L153.703 62.528C153.826 62.4495 153.931 62.3448 154.01 62.2213L155.755 59.4789Z" fill="#58C3FF"/>
<circle cx="158.599" cy="40.0683" r="3.375" fill="#58C3FF"/>
<circle cx="170.358" cy="85.7195" r="5.27625" fill="#58C3FF"/>
</svg>
